# xmcd
#
# Track frame offsets:
# 150
# 22450
# 41998
# 64055
# 89502
# 109977
# 132414
# 170360
#
# Disc length: 3226 seconds
#
#
# Revision: 0
# Processed by: cddbd v1.5.1PL0 Copyright (c) Steve Scherf et al.
# Submitted via: FreeRIP 2.00 
#
DISCID=780c9808
DTITLE=Al Tait AllStars - Live At The Goody's 
DYEAR=2004
DGENRE=Blues Rock
TTITLE0=All Along the Watchtower
TTITLE1=Highway Man
TTITLE2=Everybody Must Get Stoned
TTITLE3=Sweet Home Alabama
TTITLE4=Howl Howl Howl
TTITLE5=When I Get Drunk
TTITLE6=Standing On Shakey Ground
TTITLE7=Voodoo Chile
EXTD=Balls To The Wall Heavy Blues Rock.
EXTT0=
EXTT1=
EXTT2=
EXTT3=
EXTT4=
EXTT5=
EXTT6=
EXTT7=
PLAYORDER=
